<?xml version="1.0" encoding="utf-8"?>
<!-- Generator: Adobe Illustrator 16.0.0, SVG Export Plug-In . SVG Version: 6.00 Build 0)  -->
<!DOCTYPE svg PUBLIC "-//W3C//DTD SVG 1.1//EN" "http://www.w3.org/Graphics/SVG/1.1/DTD/svg11.dtd">
<svg version="1.1" id="Capa_1" xmlns="http://www.w3.org/2000/svg" xmlns:xlink="http://www.w3.org/1999/xlink" x="0px" y="0px"
	 width="56.693px" height="56.693px" viewBox="-14.174 -14.174 56.693 56.693"
	 enable-background="new -14.174 -14.174 56.693 56.693" xml:space="preserve">
<g>
	<g>
		<path fill="#FFFFFF" d="M14.182,42.04c-15.36,0-27.856-12.497-27.856-27.858c0-15.36,12.496-27.856,27.856-27.856
			c15.361,0,27.858,12.496,27.858,27.856C42.04,29.543,29.543,42.04,14.182,42.04z M21.848-2.017c-0.747,0-1.462,0.234-2.066,0.677
			L-1.405,14.183l21.186,15.526c0.604,0.443,1.319,0.677,2.066,0.677c1.112,0,2.169-0.535,2.826-1.431
			c1.141-1.557,0.802-3.752-0.754-4.893l-13.482-9.879L23.92,4.306c1.556-1.141,1.895-3.335,0.754-4.892
			C24.017-1.482,22.96-2.017,21.848-2.017z"/>
		<path d="M14.182-13.174c15.085,0,27.358,12.272,27.358,27.356c0,15.085-12.272,27.358-27.358,27.358
			c-15.084,0-27.356-12.272-27.356-27.358C-13.174-0.902-0.902-13.174,14.182-13.174 M21.848,30.886
			c1.271,0,2.479-0.611,3.229-1.636c1.304-1.778,0.917-4.287-0.862-5.591l-12.931-9.476l12.932-9.474
			c1.778-1.304,2.165-3.812,0.861-5.591c-0.751-1.024-1.958-1.636-3.229-1.636c-0.854,0-1.671,0.268-2.361,0.773L-1.15,13.377
			l-1.101,0.807l1.101,0.806l20.637,15.123C20.177,30.618,20.994,30.886,21.848,30.886 M14.182-14.174
			c-15.636,0-28.356,12.721-28.356,28.356c0,15.636,12.72,28.358,28.356,28.358c15.636,0,28.358-12.722,28.358-28.358
			C42.54-1.453,29.817-14.174,14.182-14.174L14.182-14.174z M21.848,29.886c-0.615,0-1.236-0.188-1.771-0.58L-0.559,14.183
			L20.077-0.937c0.534-0.392,1.155-0.58,1.771-0.58c0.924,0,1.835,0.425,2.423,1.227c0.979,1.336,0.689,3.213-0.646,4.193
			L9.593,14.183l14.032,10.283c1.336,0.979,1.626,2.856,0.646,4.193C23.683,29.461,22.772,29.886,21.848,29.886L21.848,29.886z"/>
	</g>
</g>
</svg>
