<?xml version="1.0" encoding="utf-8"?>
<!-- Generator: Adobe Illustrator 16.0.0, SVG Export Plug-In . SVG Version: 6.00 Build 0)  -->
<!DOCTYPE svg PUBLIC "-//W3C//DTD SVG 1.1//EN" "http://www.w3.org/Graphics/SVG/1.1/DTD/svg11.dtd">
<svg version="1.1" id="Capa_1" xmlns="http://www.w3.org/2000/svg" xmlns:xlink="http://www.w3.org/1999/xlink" x="0px" y="0px"
	 width="11.99px" height="11.99px" viewBox="8.178 8.178 11.99 11.99" enable-background="new 8.178 8.178 11.99 11.99"
	 xml:space="preserve">
<g>
	<g>
		<path fill="#FFFFFF" d="M14.183,19.689c-3.036,0-5.505-2.47-5.505-5.505s2.47-5.505,5.505-5.505s5.505,2.47,5.505,5.505
			S17.219,19.689,14.183,19.689z"/>
		<path d="M14.183,9.178c2.76,0,5.005,2.246,5.005,5.005c0,2.76-2.245,5.005-5.005,5.005c-2.76,0-5.005-2.245-5.005-5.005
			C9.178,11.424,11.424,9.178,14.183,9.178 M14.183,8.178c-3.312,0-6.005,2.694-6.005,6.005c0,3.312,2.694,6.005,6.005,6.005
			c3.312,0,6.005-2.693,6.005-6.005C20.189,10.872,17.495,8.178,14.183,8.178L14.183,8.178z"/>
	</g>
</g>
</svg>
