<?xml version="1.0" encoding="utf-8"?>
<!-- Generator: Adobe Illustrator 16.0.0, SVG Export Plug-In . SVG Version: 6.00 Build 0)  -->
<!DOCTYPE svg PUBLIC "-//W3C//DTD SVG 1.1//EN" "http://www.w3.org/Graphics/SVG/1.1/DTD/svg11.dtd">
<svg version="1.1" id="Capa_1" xmlns="http://www.w3.org/2000/svg" xmlns:xlink="http://www.w3.org/1999/xlink" x="0px" y="0px"
	 width="28.346px" height="28.346px" viewBox="0 0 28.346 28.346" enable-background="new 0 0 28.346 28.346" xml:space="preserve">
<g>
	<path fill="#FFFFFF" d="M14.183,27.866C6.638,27.866,0.5,21.728,0.5,14.183C0.5,6.638,6.638,0.5,14.183,0.5
		c7.544,0,13.683,6.138,13.683,13.683C27.866,21.728,21.728,27.866,14.183,27.866z"/>
	<path d="M14.183,1c7.269,0,13.183,5.914,13.183,13.183s-5.914,13.183-13.183,13.183S1,21.452,1,14.183S6.914,1,14.183,1 M14.183,0
		C6.35,0,0,6.35,0,14.183c0,7.833,6.35,14.183,14.183,14.183c7.833,0,14.183-6.35,14.183-14.183C28.366,6.35,22.016,0,14.183,0
		L14.183,0z"/>
</g>
</svg>
