<?xml version="1.0" encoding="utf-8"?>
<!-- Generator: Adobe Illustrator 16.0.0, SVG Export Plug-In . SVG Version: 6.00 Build 0)  -->
<!DOCTYPE svg PUBLIC "-//W3C//DTD SVG 1.1//EN" "http://www.w3.org/Graphics/SVG/1.1/DTD/svg11.dtd">
<svg version="1.1" xmlns="http://www.w3.org/2000/svg" xmlns:xlink="http://www.w3.org/1999/xlink" x="0px" y="0px" width="1324px"
	 height="828px" viewBox="0 0 1324 828" enable-background="new 0 0 1324 828" xml:space="preserve">
<g id="Capa_1" display="none" opacity="0.3">
</g>
<g id="Capa_2">
</g>
<g id="Capa_3">
	<path fill="#F4E71F" stroke="#111111" stroke-width="8" stroke-miterlimit="10" d="M1274,309.293
		C1238.211,67.095,913.664-2.016,578.993,18.462C148.719,44.789-32.146,275.655,29.038,486.354
		c68.044,234.32,357.625,289.396,788.52,253.597c68.026-5.651,113.148-11.943,166.344-26.348
		c35.098,47.396,77.159,71.873,180.633,94.463c0,0-64.085-75.724-78.264-144.066C1239.878,564.981,1297.208,466.357,1274,309.293z"
		/>
	<g>
		<g>
			<path fill="#111111" d="M846.528,195.834c15.722,0,30.702,6.129,38.472,25.664c23.552,59.221-78.292,96.299-78.292,96.299
				l-15.13-104.672C791.578,213.125,820.106,195.834,846.528,195.834 M846.528,187.834c-28.331,0-57.854,17.697-59.097,18.449
				l-4.528,2.746l0.757,5.24l15.13,104.672l1.408,9.738l9.246-3.365c2.613-0.953,64.207-23.762,82.154-63.781
				c6.307-14.063,6.587-28.527,0.835-42.99C884.444,198.453,868.571,187.834,846.528,187.834L846.528,187.834z"/>
			<path fill="#111111" d="M565.427,209.777c15.722,0,30.702,6.129,38.471,25.664c23.552,59.221-78.292,96.299-78.292,96.299
				l-15.13-104.672C510.476,227.068,539.004,209.777,565.427,209.777 M565.427,201.777c-28.332,0-57.854,17.697-59.097,18.449
				l-4.529,2.746l0.757,5.24l15.13,104.672l1.408,9.738l9.247-3.365c2.613-0.953,64.207-23.762,82.154-63.781
				c6.306-14.063,6.587-28.527,0.835-42.99C603.343,212.396,587.469,201.777,565.427,201.777L565.427,201.777z"/>
			<path fill="#111111" d="M889.1,377.596c23.641,0,46.714,8.924,56.675,39.338c42.733,130.482-103.714,130.574-103.714,130.574
				l-21.215-151.941C820.846,395.566,855.545,377.596,889.1,377.596 M889.1,369.596c-35.1,0-70.445,18.096-71.933,18.867
				l-5.027,2.602l0.783,5.607l21.215,151.941l0.963,6.898l6.965-0.004c0.733-0.002,18.197-0.072,39.604-5.41
				c28.938-7.215,51.277-20.752,64.601-39.146c17.689-24.424,20.081-56.893,7.107-96.508
				C943.769,385.104,921.542,369.596,889.1,369.596L889.1,369.596z"/>
			<path fill="#111111" d="M607.999,391.539c23.64,0,46.714,8.924,56.675,39.338c42.733,130.482-103.714,130.574-103.714,130.574
				L539.745,409.51C539.745,409.51,574.444,391.539,607.999,391.539 M607.999,383.539c-35.1,0-70.445,18.096-71.933,18.867
				l-5.027,2.602l0.783,5.607l21.215,151.941l0.963,6.898l6.965-0.004c0.733-0.002,18.197-0.072,39.604-5.41
				c28.939-7.215,51.277-20.752,64.601-39.146c17.69-24.424,20.081-56.893,7.107-96.508
				C662.667,399.047,640.44,383.539,607.999,383.539L607.999,383.539z"/>
			<path fill="#111111" d="M539.706,640.418c-32.572,0-55.25-3.172-56.2-3.307l-3.116-0.443l-44.296-459.455l2.84-1.09
				c0.721-0.277,72.797-27.658,137.011-27.658c24.924,0,45.759,4.096,61.924,12.176c19.544,9.768,32.486,25.398,38.465,46.459
				c13.535,47.674,0.371,80.973-13.057,100.512c-7.441,10.83-15.685,18.676-22.063,23.813c21.779,1.158,68.403,8.988,97.254,52.5
				L717.195,163.27l2.84-1.09c0.721-0.277,72.797-27.658,137.011-27.658c24.925,0,45.759,4.096,61.924,12.176
				c19.545,9.768,32.487,25.398,38.466,46.459c13.535,47.674,0.37,80.973-13.057,100.512c-7.434,10.818-15.666,18.658-22.042,23.795
				c14.788,0.732,37.911,4.275,60.392,17.486c33.282,19.559,53.299,53.127,59.491,99.773c7.072,53.262-3.467,96.393-31.322,128.189
				c-46.021,52.535-128.758,63.564-190.061,63.564c-0.004,0-0.003,0-0.007,0c-32.584,0-55.272-3.172-56.223-3.309l-3.116-0.443
				l-8.191-84.971C719.365,626.533,606.752,640.418,539.706,640.418z M564.423,557.332c13.976-0.711,66.536-5.631,91.044-39.502
				c15.291-21.131,17.109-49.967,5.404-85.707c-7.95-24.275-25.739-36.584-52.874-36.584c-27.083,0-55.427,12.311-63.891,16.295
				L564.423,557.332z M845.525,543.389c13.977-0.711,66.535-5.631,91.045-39.502c15.29-21.131,17.108-49.967,5.403-85.707
				c-7.949-24.275-25.739-36.584-52.873-36.584c-27.083,0-55.427,12.311-63.891,16.295L845.525,543.389z M528.839,326.145
				c14.253-5.951,57.467-26.031,70.713-55.59c4.924-10.988,5.135-22.303,0.629-33.635c-6.193-15.572-17.561-23.143-34.754-23.143
				c-20.803,0-43.468,11.492-50.602,15.418L528.839,326.145z M809.94,312.201c14.254-5.951,57.468-26.031,70.714-55.59
				c4.924-10.988,5.135-22.303,0.629-33.635c-6.192-15.572-17.561-23.143-34.755-23.143c-20.803,0-43.468,11.492-50.602,15.418
				L809.94,312.201z"/>
			<path fill="#111111" d="M857.045,138.521c43.837,0,84.345,12.766,96.542,55.729c25.38,89.393-44.046,127.262-44.046,127.262
				s2.298-0.211,6.286-0.211c23.879,0,108.309,7.609,122.427,113.949c21.851,164.578-131.397,187.227-217.425,187.227
				c-32.676,0-55.659-3.268-55.659-3.268l-9.844-102.105c-23.138,103.268-143.206,119.314-215.62,119.314
				c-32.664,0-55.638-3.266-55.638-3.266l-43.702-453.295c0,0,71.362-27.395,135.577-27.393c43.837,0,84.345,12.766,96.542,55.729
				c25.38,89.393-44.046,127.262-44.046,127.262s2.287-0.211,6.258-0.211c19.744,0.002,81.077,5.211,109.595,67.422l-22.825-236.752
				C721.468,165.914,792.83,138.52,857.045,138.521 M806.708,317.797c0,0,101.844-37.078,78.292-96.299
				c-7.771-19.539-22.747-25.664-38.472-25.664c-26.42,0-54.95,17.291-54.95,17.291L806.708,317.797 M525.606,331.74
				c0,0,101.844-37.078,78.292-96.299c-7.771-19.539-22.747-25.664-38.471-25.664c-26.42,0-54.951,17.291-54.951,17.291
				L525.606,331.74 M842.061,547.508c0,0,146.447-0.092,103.714-130.574c-9.962-30.42-33.031-39.34-56.675-39.338
				c-33.551,0.002-68.254,17.971-68.254,17.971L842.061,547.508 M560.959,561.451c0,0,146.447-0.092,103.714-130.574
				c-9.962-30.42-33.031-39.34-56.675-39.338c-33.551,0.002-68.254,17.971-68.254,17.971L560.959,561.451 M857.045,130.521
				c-64.951-0.002-135.474,26.783-138.444,27.924l-5.68,2.18l0.584,6.057l19.611,203.42c-11.732-13.781-26.373-24.439-43.783-31.838
				c-14.031-5.961-27.595-8.77-38.425-10.041c5.061-4.818,10.554-10.908,15.665-18.346c8.879-12.922,14.803-27.271,17.607-42.652
				c3.472-19.043,2.127-39.639-4-61.217c-6.299-22.188-19.934-38.654-40.525-48.945c-16.726-8.359-38.161-12.598-63.712-12.598
				c-64.951-0.002-135.474,26.783-138.444,27.924l-5.68,2.18l0.584,6.057l43.702,453.295l0.604,6.266l6.233,0.887
				c0.961,0.137,23.911,3.346,56.764,3.346c34.639,0,85.187-3.732,129.281-21.514c23.747-9.574,43.529-22.361,58.796-38.004
				c9.268-9.498,16.943-20.113,22.98-31.762l6.443,66.838l0.604,6.266l6.233,0.887c0.961,0.137,23.921,3.348,56.785,3.348
				c36.661,0,70.099-3.924,99.382-11.662c40.61-10.732,72.134-28.654,93.695-53.268c28.647-32.703,39.508-76.896,32.278-131.35
				c-3.422-25.771-11.149-47.977-22.968-66c-9.977-15.215-22.918-27.561-38.463-36.697c-18.795-11.045-38.007-15.537-52.72-17.244
				c5.055-4.814,10.538-10.896,15.641-18.322c8.879-12.922,14.803-27.271,17.607-42.652c3.473-19.043,2.127-39.639-3.999-61.217
				c-6.3-22.188-19.935-38.654-40.526-48.945C904.033,134.76,882.596,130.521,857.045,130.521L857.045,130.521z M800.287,217.451
				c8.677-4.535,28.293-13.617,46.241-13.617c15.367,0,25.52,6.746,31.038,20.621c4.147,10.43,3.966,20.408-0.557,30.508
				c-11.442,25.553-46.915,43.934-63.857,51.496L800.287,217.451L800.287,217.451z M519.185,231.395
				c8.677-4.535,28.293-13.617,46.242-13.617c15.367,0,25.52,6.746,31.038,20.621c4.151,10.438,3.965,20.424-0.567,30.531
				c-11.48,25.602-46.916,43.939-63.845,51.482L519.185,231.395L519.185,231.395z M829.583,400.283
				c10.479-4.697,35.585-14.686,59.518-14.688c25.567,0,41.617,11.064,49.072,33.828c11.288,34.467,9.653,62.104-4.86,82.143
				c-21.798,30.096-67.044,36.322-84.337,37.607L829.583,400.283L829.583,400.283z M548.481,414.227
				c10.48-4.697,35.584-14.686,59.518-14.688c25.567,0,41.617,11.064,49.072,33.828c11.288,34.467,9.653,62.104-4.86,82.143
				c-21.798,30.096-67.044,36.322-84.337,37.607L548.481,414.227L548.481,414.227z"/>
			<path fill="#111111" d="M1128.166,481.836c-27.397,0-36.4-13.717-36.77-14.301l-0.711-1.123l28.713-373.137l1.948-1.029
				c19.418-10.275,37.963-15.484,55.118-15.484c22.81,0,43.633,9.361,60.218,27.072c12.427,13.271,18.07,26.432,18.305,26.984
				l0.488,1.156l-71.109,336.32l-1.96,0.803c-20.654,8.453-38.901,12.738-54.235,12.738
				C1128.168,481.836,1128.167,481.836,1128.166,481.836z"/>
			<path fill="#111111" d="M1176.464,80.762c53.012,0,74.838,51.615,74.838,51.615l-70.412,333.018
				c-22.802,9.332-39.966,12.441-52.724,12.441c-25.513,0-33.392-12.441-33.392-12.441l28.442-369.613
				C1143.657,84.965,1161.329,80.762,1176.464,80.762 M1176.464,72.762c-17.814,0-36.988,5.365-56.988,15.947l-3.897,2.063
				l-0.338,4.395l-28.442,369.615l-0.204,2.648l1.422,2.246c1.048,1.654,11.074,16.16,40.15,16.16
				c15.858,0,34.617-4.387,55.754-13.037l3.92-1.605l0.877-4.143l70.412-333.02l0.52-2.457l-0.979-2.314
				c-0.245-0.58-6.16-14.373-19.068-28.158C1222.242,82.561,1200.409,72.762,1176.464,72.762L1176.464,72.762z"/>
			<path fill="#111111" d="M1118.493,649.664c-35.018,0-58.545-21.402-58.545-53.26c0-16.582,6.135-33.893,16.831-47.496
				c11.485-14.607,26.3-22.652,41.714-22.652c38.301,0,58.546,19.512,58.546,56.426
				C1177.039,618.365,1149.681,649.664,1118.493,649.664z"/>
			<path fill="#111111" d="M1118.493,530.256c30.125,0,54.546,12.17,54.546,52.426c0,31.869-24.421,62.982-54.546,62.982
				s-54.545-17.391-54.545-49.26S1088.368,530.256,1118.493,530.256 M1118.493,522.256c-16.668,0-32.599,8.588-44.858,24.18
				c-11.24,14.295-17.687,32.508-17.687,49.969c0,17.541,6.506,32.305,18.815,42.695c11.128,9.393,26.658,14.564,43.729,14.564
				c16.703,0,32.577-7.953,44.698-22.396c11.343-13.516,17.848-31.225,17.848-48.586c0-21.254-6.362-37.236-18.911-47.5
				C1151.643,526.605,1136.962,522.256,1118.493,522.256L1118.493,522.256z"/>
			<path fill="#111111" d="M317.627,659.863c-26.493,0-53.465-6.936-78-20.055c-33.087-17.693-63.34-63.111-83-124.611
				c-19.194-60.041-26.231-127.887-19.308-186.141c10.02-84.309,47.454-139.041,105.405-154.113
				c19.831-5.158,38.653-7.773,55.943-7.773c56.045,0,99.043,27.717,124.347,80.152c18.923,39.215,21.257,77.785,21.347,79.408
				l0.188,3.395l-96.275,21.242l-0.687-4.166c-0.15-0.908-15.508-90.783-62.929-90.783c-3.286,0-6.715,0.434-10.191,1.287
				c-10.624,2.609-19.432,9.686-26.18,21.031c-26.105,43.895-14.819,134.615-9.449,155.053c1.304,4.963,2.521,11.811,3.932,19.74
				c7.288,40.979,19.485,109.564,72.414,109.564c14.276,0,25.719-4.828,34.008-14.352c23.017-26.438,15.799-80.563,15.724-81.105
				l-0.55-3.955l91.818-12.904l0.619,3.877c13.182,82.523-10.915,131.342-33.451,157.762
				C397.257,643.012,359.709,659.863,317.627,659.863z"/>
			<path fill="#111111" d="M298.667,171.17c133.052,0.002,141.7,155.781,141.7,155.781l-88.833,19.6
				c0,0-15.463-94.133-66.875-94.133c-3.542,0-7.255,0.447-11.146,1.402c-60.353,14.82-46.332,151.344-38.543,180.984
				c7.787,29.643,13.045,132.289,80.215,132.289c67.675,0,53.694-100.01,53.694-100.01l83.976-11.799
				c21.133,132.311-52.783,200.578-135.227,200.578c-25.401,0-51.63-6.49-76.115-19.582
				c-110.233-58.945-162.4-414.652,2.217-457.467C264.068,173.523,282.307,171.17,298.667,171.17 M298.667,163.17
				c-17.628,0-36.79,2.658-56.95,7.902c-59.656,15.516-98.143,71.455-108.371,157.512c-6.988,58.803,0.108,127.264,19.47,187.83
				c9.6,30.029,21.537,56.156,35.481,77.658c15.035,23.186,31.67,39.76,49.443,49.264c25.114,13.428,52.738,20.527,79.887,20.527
				c21.01,0,41.036-4.121,59.522-12.244c19.131-8.408,35.7-20.725,49.247-36.607c15.784-18.504,26.841-41.139,32.863-67.271
				c6.452-27.998,6.955-59.529,1.494-93.717l-1.238-7.754l-7.775,1.094l-83.976,11.799l-7.917,1.113l1.107,7.916
				c0.072,0.521,7.023,52.9-14.79,77.938c-7.601,8.723-17.735,12.965-30.981,12.965c-21.333,0-37.477-11.975-49.354-36.605
				c-10.668-22.125-15.554-49.598-19.122-69.658c-1.425-8.016-2.657-14.939-4.001-20.057
				c-6.867-26.137-14.495-112.455,9.019-151.992c6.267-10.537,14.018-16.814,23.695-19.191c3.166-0.777,6.273-1.172,9.238-1.172
				c22.161,0,36.854,22.852,45.277,42.02c9.822,22.354,13.667,45.186,13.705,45.414l1.376,8.326l8.241-1.814l88.833-19.6
				l6.641-1.465l-0.377-6.791c-0.092-1.654-2.472-40.998-21.738-80.924c-11.475-23.779-26.577-42.781-44.885-56.479
				C358.728,171.896,330.781,163.17,298.667,163.17L298.667,163.17z"/>
		</g>
		<g>
			<g>
				<g>
					<path fill="#111111" d="M838.024,187.33c15.722,0,30.702,6.129,38.472,25.664c23.552,59.221-78.292,96.299-78.292,96.299
						l-15.13-104.672C783.074,204.621,811.602,187.33,838.024,187.33 M838.024,179.33c-28.331,0-57.854,17.697-59.097,18.449
						l-4.528,2.746l0.757,5.24l15.13,104.672l1.408,9.738l9.246-3.365c2.613-0.953,64.207-23.762,82.154-63.781
						c6.307-14.063,6.587-28.527,0.835-42.99C875.94,189.949,860.067,179.33,838.024,179.33L838.024,179.33z"/>
				</g>
				<g>
					<path fill="#111111" d="M556.923,201.273c15.722,0,30.702,6.129,38.471,25.664c23.552,59.221-78.292,96.299-78.292,96.299
						l-15.13-104.672C501.972,218.564,530.5,201.273,556.923,201.273 M556.923,193.273c-28.332,0-57.854,17.697-59.097,18.449
						l-4.529,2.746l0.757,5.24l15.13,104.672l1.408,9.738l9.247-3.365c2.613-0.953,64.207-23.762,82.154-63.781
						c6.306-14.063,6.587-28.527,0.835-42.99C594.839,203.893,578.965,193.273,556.923,193.273L556.923,193.273z"/>
				</g>
				<g>
					<path fill="#111111" d="M880.596,369.092c23.641,0,46.714,8.924,56.675,39.338c42.733,130.482-103.714,130.574-103.714,130.574
						l-21.215-151.941C812.342,387.063,847.042,369.092,880.596,369.092 M880.596,361.092c-35.1,0-70.445,18.096-71.933,18.867
						l-5.027,2.602l0.783,5.607l21.215,151.941l0.963,6.898l6.965-0.004c0.733-0.002,18.197-0.072,39.604-5.41
						c28.938-7.215,51.277-20.752,64.601-39.146c17.689-24.424,20.081-56.893,7.107-96.508
						C935.265,376.6,913.038,361.092,880.596,361.092L880.596,361.092z"/>
				</g>
				<g>
					<path fill="#111111" d="M599.495,383.035c23.64,0,46.714,8.924,56.675,39.338c42.733,130.482-103.714,130.574-103.714,130.574
						l-21.215-151.941C531.241,401.006,565.94,383.035,599.495,383.035 M599.495,375.035c-35.1,0-70.445,18.096-71.933,18.867
						l-5.027,2.602l0.783,5.607l21.215,151.941l0.963,6.898l6.965-0.004c0.733-0.002,18.197-0.072,39.604-5.41
						c28.939-7.215,51.277-20.752,64.601-39.146c17.69-24.424,20.081-56.893,7.107-96.508
						C654.164,390.543,631.937,375.035,599.495,375.035L599.495,375.035z"/>
				</g>
				<g>
					<path fill="#43AAE0" d="M531.202,631.914c-32.572,0-55.25-3.172-56.2-3.307l-3.116-0.443l-44.296-459.455l2.84-1.09
						c0.721-0.277,72.797-27.658,137.011-27.658c24.924,0,45.759,4.096,61.924,12.176c19.544,9.768,32.486,25.398,38.465,46.459
						c13.535,47.674,0.371,80.973-13.057,100.512c-7.441,10.83-15.685,18.676-22.063,23.813c21.779,1.158,68.403,8.988,97.254,52.5
						l-21.273-220.654l2.84-1.09c0.721-0.277,72.797-27.658,137.011-27.658c24.925,0,45.759,4.096,61.924,12.176
						c19.545,9.768,32.487,25.398,38.466,46.459c13.535,47.674,0.37,80.973-13.057,100.512
						c-7.434,10.818-15.666,18.658-22.042,23.795c14.788,0.732,37.911,4.275,60.392,17.486
						c33.282,19.559,53.299,53.127,59.491,99.773c7.072,53.262-3.467,96.393-31.322,128.189
						c-46.021,52.535-128.758,63.564-190.061,63.564c-0.004,0-0.003,0-0.007,0c-32.584,0-55.272-3.172-56.223-3.309l-3.116-0.443
						l-8.191-84.971C710.861,618.029,598.248,631.914,531.202,631.914z M555.919,548.828c13.976-0.711,66.536-5.631,91.044-39.502
						c15.291-21.131,17.109-49.967,5.404-85.707c-7.95-24.275-25.739-36.584-52.874-36.584c-27.083,0-55.427,12.311-63.891,16.295
						L555.919,548.828z M837.021,534.885c13.977-0.711,66.535-5.631,91.045-39.502c15.29-21.131,17.108-49.967,5.403-85.707
						c-7.949-24.275-25.739-36.584-52.873-36.584c-27.083,0-55.427,12.311-63.891,16.295L837.021,534.885z M520.335,317.641
						c14.253-5.951,57.467-26.031,70.713-55.59c4.924-10.988,5.135-22.303,0.629-33.635c-6.193-15.572-17.561-23.143-34.754-23.143
						c-20.803,0-43.468,11.492-50.602,15.418L520.335,317.641z M801.436,303.697c14.254-5.951,57.468-26.031,70.714-55.59
						c4.924-10.988,5.135-22.303,0.629-33.635c-6.192-15.572-17.561-23.143-34.755-23.143c-20.803,0-43.468,11.492-50.602,15.418
						L801.436,303.697z"/>
					<path fill="#111111" d="M848.542,130.018c43.837,0,84.345,12.766,96.542,55.729c25.38,89.393-44.046,127.262-44.046,127.262
						s2.298-0.211,6.286-0.211c23.879,0,108.309,7.609,122.427,113.949c21.851,164.578-131.397,187.227-217.425,187.227
						c-32.676,0-55.659-3.268-55.659-3.268L746.823,508.6c-23.138,103.268-143.206,119.314-215.62,119.314
						c-32.664,0-55.638-3.266-55.638-3.266l-43.702-453.295c0,0,71.362-27.395,135.577-27.393c43.837,0,84.345,12.766,96.542,55.729
						c25.38,89.393-44.046,127.262-44.046,127.262s2.287-0.211,6.258-0.211c19.744,0.002,81.077,5.211,109.595,67.422
						L712.964,157.41C712.964,157.41,784.326,130.016,848.542,130.018 M798.204,309.293c0,0,101.844-37.078,78.292-96.299
						c-7.771-19.539-22.747-25.664-38.472-25.664c-26.42,0-54.95,17.291-54.95,17.291L798.204,309.293 M517.102,323.236
						c0,0,101.844-37.078,78.292-96.299c-7.771-19.539-22.747-25.664-38.471-25.664c-26.42,0-54.951,17.291-54.951,17.291
						L517.102,323.236 M833.557,539.004c0,0,146.447-0.092,103.714-130.574c-9.962-30.42-33.031-39.34-56.675-39.338
						c-33.551,0.002-68.254,17.971-68.254,17.971L833.557,539.004 M552.456,552.947c0,0,146.447-0.092,103.714-130.574
						c-9.962-30.42-33.031-39.34-56.675-39.338c-33.551,0.002-68.254,17.971-68.254,17.971L552.456,552.947 M848.542,122.018
						c-64.951-0.002-135.474,26.783-138.444,27.924l-5.68,2.18l0.584,6.057l19.611,203.42
						c-11.732-13.781-26.373-24.439-43.783-31.838c-14.031-5.961-27.595-8.77-38.425-10.041
						c5.061-4.818,10.554-10.908,15.665-18.346c8.879-12.922,14.803-27.271,17.607-42.652c3.472-19.043,2.127-39.639-4-61.217
						c-6.299-22.188-19.934-38.654-40.525-48.945c-16.726-8.359-38.161-12.598-63.712-12.598
						c-64.951-0.002-135.474,26.783-138.444,27.924l-5.68,2.18l0.584,6.057l43.702,453.295l0.604,6.266l6.233,0.887
						c0.961,0.137,23.911,3.346,56.764,3.346c34.639,0,85.187-3.732,129.281-21.514c23.747-9.574,43.529-22.361,58.796-38.004
						c9.268-9.498,16.943-20.113,22.98-31.762l6.443,66.838l0.604,6.266l6.233,0.887c0.961,0.137,23.921,3.348,56.785,3.348
						c36.661,0,70.099-3.924,99.382-11.662c40.61-10.732,72.134-28.654,93.695-53.268c28.647-32.703,39.508-76.896,32.278-131.35
						c-3.422-25.771-11.149-47.977-22.968-66c-9.977-15.215-22.918-27.561-38.463-36.697c-18.795-11.045-38.007-15.537-52.72-17.244
						c5.055-4.814,10.538-10.896,15.641-18.322c8.879-12.922,14.803-27.271,17.607-42.652c3.473-19.043,2.127-39.639-3.999-61.217
						c-6.3-22.188-19.935-38.654-40.526-48.945C895.529,126.256,874.092,122.018,848.542,122.018L848.542,122.018z M791.783,208.947
						c8.677-4.535,28.293-13.617,46.241-13.617c15.367,0,25.52,6.746,31.038,20.621c4.147,10.43,3.966,20.408-0.557,30.508
						c-11.442,25.553-46.915,43.934-63.857,51.496L791.783,208.947L791.783,208.947z M510.681,222.891
						c8.677-4.535,28.293-13.617,46.242-13.617c15.367,0,25.52,6.746,31.038,20.621c4.151,10.438,3.965,20.424-0.567,30.531
						c-11.48,25.602-46.916,43.939-63.845,51.482L510.681,222.891L510.681,222.891z M821.079,391.779
						c10.479-4.697,35.585-14.686,59.518-14.688c25.567,0,41.617,11.064,49.072,33.828c11.288,34.467,9.653,62.104-4.86,82.143
						c-21.798,30.096-67.044,36.322-84.337,37.607L821.079,391.779L821.079,391.779z M539.977,405.723
						c10.48-4.697,35.584-14.686,59.518-14.688c25.567,0,41.617,11.064,49.072,33.828c11.288,34.467,9.653,62.104-4.86,82.143
						c-21.798,30.096-67.044,36.322-84.337,37.607L539.977,405.723L539.977,405.723z"/>
				</g>
				<g>
					<path fill="#E52329" d="M1119.662,473.332c-27.397,0-36.4-13.717-36.77-14.301l-0.711-1.123l28.713-373.137l1.948-1.029
						c19.418-10.275,37.963-15.484,55.118-15.484c22.81,0,43.633,9.361,60.218,27.072c12.427,13.271,18.07,26.432,18.305,26.984
						l0.488,1.156l-71.109,336.32l-1.96,0.803c-20.654,8.453-38.901,12.738-54.235,12.738
						C1119.665,473.332,1119.664,473.332,1119.662,473.332z"/>
					<path fill="#111111" d="M1167.96,72.258c53.012,0,74.838,51.615,74.838,51.615l-70.412,333.018
						c-22.802,9.332-39.966,12.441-52.724,12.441c-25.513,0-33.392-12.441-33.392-12.441l28.442-369.613
						C1135.153,76.461,1152.825,72.258,1167.96,72.258 M1167.96,64.258c-17.814,0-36.988,5.365-56.988,15.947l-3.897,2.063
						l-0.338,4.395l-28.442,369.615l-0.204,2.648l1.422,2.246c1.048,1.654,11.074,16.16,40.15,16.16
						c15.858,0,34.617-4.387,55.754-13.037l3.92-1.605l0.877-4.143l70.412-333.02l0.52-2.457l-0.979-2.314
						c-0.245-0.58-6.16-14.373-19.068-28.158C1213.738,74.057,1191.905,64.258,1167.96,64.258L1167.96,64.258z"/>
				</g>
				<g>
					<path fill="#E52329" d="M1109.989,641.16c-35.018,0-58.545-21.402-58.545-53.26c0-16.582,6.135-33.893,16.831-47.496
						c11.485-14.607,26.3-22.652,41.714-22.652c38.301,0,58.546,19.512,58.546,56.426
						C1168.535,609.861,1141.177,641.16,1109.989,641.16z"/>
					<path fill="#111111" d="M1109.989,521.752c30.125,0,54.546,12.17,54.546,52.426c0,31.869-24.421,62.982-54.546,62.982
						s-54.545-17.391-54.545-49.26S1079.864,521.752,1109.989,521.752 M1109.989,513.752c-16.668,0-32.599,8.588-44.858,24.18
						c-11.24,14.295-17.687,32.508-17.687,49.969c0,17.541,6.506,32.305,18.815,42.695c11.128,9.393,26.658,14.564,43.729,14.564
						c16.703,0,32.577-7.953,44.698-22.396c11.343-13.516,17.848-31.225,17.848-48.586c0-21.254-6.362-37.236-18.911-47.5
						C1143.139,518.102,1128.458,513.752,1109.989,513.752L1109.989,513.752z"/>
				</g>
				<g>
					<path fill="#E52329" d="M309.124,651.359c-26.493,0-53.465-6.936-78-20.055c-33.087-17.693-63.34-63.111-83-124.611
						c-19.194-60.041-26.231-127.887-19.308-186.141c10.02-84.309,47.454-139.041,105.405-154.113
						c19.831-5.158,38.653-7.773,55.943-7.773c56.045,0,99.043,27.717,124.347,80.152c18.923,39.215,21.257,77.785,21.347,79.408
						l0.188,3.395l-96.275,21.242l-0.687-4.166c-0.15-0.908-15.508-90.783-62.929-90.783c-3.286,0-6.715,0.434-10.191,1.287
						c-10.624,2.609-19.432,9.686-26.18,21.031c-26.105,43.895-14.819,134.615-9.449,155.053c1.304,4.963,2.521,11.811,3.932,19.74
						c7.288,40.979,19.485,109.564,72.414,109.564c14.276,0,25.719-4.828,34.008-14.352c23.017-26.438,15.799-80.563,15.724-81.105
						l-0.55-3.955l91.818-12.904l0.619,3.877c13.182,82.523-10.915,131.342-33.451,157.762
						C388.753,634.508,351.205,651.359,309.124,651.359z"/>
					<path fill="#111111" d="M290.163,162.666c133.052,0.002,141.7,155.781,141.7,155.781l-88.833,19.6
						c0,0-15.463-94.133-66.875-94.133c-3.542,0-7.255,0.447-11.146,1.402c-60.353,14.82-46.332,151.344-38.543,180.984
						c7.787,29.643,13.045,132.289,80.215,132.289c67.675,0,53.694-100.01,53.694-100.01l83.976-11.799
						c21.133,132.311-52.783,200.578-135.227,200.578c-25.401,0-51.63-6.49-76.115-19.582
						c-110.233-58.945-162.4-414.652,2.217-457.467C255.564,165.02,273.803,162.666,290.163,162.666 M290.163,154.666
						c-17.628,0-36.79,2.658-56.95,7.902c-59.656,15.516-98.143,71.455-108.371,157.512c-6.988,58.803,0.108,127.264,19.47,187.83
						c9.6,30.029,21.537,56.156,35.481,77.658c15.035,23.186,31.67,39.76,49.443,49.264c25.114,13.428,52.738,20.527,79.887,20.527
						c21.01,0,41.036-4.121,59.522-12.244c19.131-8.408,35.7-20.725,49.247-36.607c15.784-18.504,26.841-41.139,32.863-67.271
						c6.452-27.998,6.955-59.529,1.494-93.717l-1.238-7.754l-7.775,1.094l-83.976,11.799l-7.917,1.113l1.107,7.916
						c0.072,0.521,7.023,52.9-14.79,77.938c-7.601,8.723-17.735,12.965-30.981,12.965c-21.333,0-37.477-11.975-49.354-36.605
						c-10.668-22.125-15.554-49.598-19.122-69.658c-1.425-8.016-2.657-14.939-4.001-20.057
						c-6.867-26.137-14.495-112.455,9.019-151.992c6.267-10.537,14.018-16.814,23.695-19.191c3.166-0.777,6.273-1.172,9.238-1.172
						c22.161,0,36.854,22.852,45.277,42.02c9.822,22.354,13.667,45.186,13.705,45.414l1.376,8.326l8.241-1.814l88.833-19.6
						l6.641-1.465l-0.377-6.791c-0.092-1.654-2.472-40.998-21.738-80.924c-11.475-23.779-26.577-42.781-44.885-56.479
						C350.224,163.393,322.277,154.666,290.163,154.666L290.163,154.666z"/>
				</g>
			</g>
		</g>
	</g>
</g>
</svg>
