<?xml version="1.0" encoding="utf-8"?>
<!-- Generator: Adobe Illustrator 16.0.0, SVG Export Plug-In . SVG Version: 6.00 Build 0)  -->
<!DOCTYPE svg PUBLIC "-//W3C//DTD SVG 1.1//EN" "http://www.w3.org/Graphics/SVG/1.1/DTD/svg11.dtd">
<svg version="1.1" xmlns="http://www.w3.org/2000/svg" xmlns:xlink="http://www.w3.org/1999/xlink" x="0px" y="0px" width="1145px"
	 height="605.833px" viewBox="0 0 1145 605.833" enable-background="new 0 0 1145 605.833" xml:space="preserve">
<g id="Capa_1" display="none" opacity="0.3">
</g>
<g id="Capa_2">
</g>
<g id="Capa_3">
	<g>
		<g>
			<path fill="#111111" d="M727.528,135.72c15.722,0,30.702,6.128,38.472,25.664c23.552,59.22-78.292,96.298-78.292,96.298
				l-15.13-104.671C672.578,153.011,701.106,135.72,727.528,135.72 M727.528,127.72c-28.331,0-57.854,17.696-59.097,18.449
				l-4.528,2.745l0.757,5.241l15.13,104.671l1.408,9.739l9.246-3.366c2.613-0.952,64.207-23.761,82.154-63.78
				c6.307-14.063,6.587-28.527,0.835-42.991C765.444,138.339,749.571,127.72,727.528,127.72L727.528,127.72z"/>
			<path fill="#111111" d="M446.427,149.663c15.722,0,30.702,6.128,38.471,25.664c23.552,59.22-78.292,96.298-78.292,96.298
				l-15.13-104.671C391.476,166.954,420.004,149.663,446.427,149.663 M446.427,141.663c-28.332,0-57.854,17.696-59.097,18.449
				l-4.529,2.745l0.757,5.241l15.13,104.671l1.408,9.739l9.247-3.366c2.613-0.952,64.207-23.761,82.154-63.78
				c6.306-14.063,6.587-28.527,0.835-42.991C484.343,152.282,468.469,141.663,446.427,141.663L446.427,141.663z"/>
			<path fill="#111111" d="M770.1,317.48c23.641,0,46.714,8.924,56.675,39.339c42.733,130.482-103.714,130.573-103.714,130.573
				l-21.215-151.941C701.846,335.451,736.545,317.48,770.1,317.48 M770.1,309.48c-35.1,0-70.445,18.097-71.933,18.867l-5.027,2.603
				l0.783,5.607l21.215,151.941l0.963,6.897l6.965-0.004c0.733-0.001,18.197-0.072,39.604-5.409
				c28.938-7.216,51.277-20.752,64.601-39.146c17.689-24.424,20.081-56.894,7.107-96.508
				C824.769,324.989,802.542,309.48,770.1,309.48L770.1,309.48z"/>
			<path fill="#111111" d="M488.999,331.424c23.64,0,46.714,8.924,56.675,39.339c42.733,130.482-103.714,130.573-103.714,130.573
				l-21.215-151.941C420.745,349.395,455.444,331.424,488.999,331.424 M488.999,323.424c-35.1,0-70.445,18.097-71.933,18.867
				l-5.027,2.603l0.783,5.607l21.215,151.941L435,509.34l6.965-0.004c0.733-0.001,18.197-0.072,39.604-5.409
				c28.939-7.216,51.277-20.752,64.601-39.146c17.69-24.424,20.081-56.894,7.107-96.508
				C543.667,338.933,521.44,323.424,488.999,323.424L488.999,323.424z"/>
			<path fill="#111111" d="M420.706,580.304c-32.572,0-55.25-3.172-56.2-3.307l-3.116-0.443l-44.296-459.456l2.84-1.09
				c0.721-0.276,72.797-27.658,137.011-27.658c24.924,0,45.759,4.097,61.924,12.176c19.544,9.768,32.486,25.399,38.465,46.46
				c13.535,47.673,0.371,80.972-13.057,100.512c-7.441,10.83-15.685,18.676-22.063,23.812c21.779,1.158,68.403,8.988,97.254,52.501
				l-21.273-220.655l2.84-1.09c0.721-0.276,72.797-27.658,137.011-27.658c24.925,0,45.759,4.097,61.924,12.176
				c19.545,9.768,32.487,25.399,38.466,46.46c13.535,47.673,0.37,80.972-13.057,100.512c-7.434,10.818-15.666,18.658-22.042,23.795
				c14.788,0.732,37.911,4.274,60.392,17.485c33.282,19.56,53.299,53.128,59.491,99.774c7.072,53.262-3.467,96.392-31.322,128.189
				c-46.021,52.535-128.758,63.564-190.061,63.564c-0.004,0-0.003,0-0.007,0c-32.584,0-55.272-3.173-56.223-3.309l-3.116-0.443
				l-8.191-84.971C600.365,566.418,487.752,580.304,420.706,580.304z M445.423,497.217c13.976-0.71,66.536-5.63,91.044-39.501
				c15.291-21.132,17.109-49.968,5.404-85.708c-7.95-24.275-25.739-36.584-52.874-36.584c-27.083,0-55.427,12.311-63.891,16.296
				L445.423,497.217z M726.525,483.273c13.977-0.71,66.535-5.63,91.045-39.501c15.29-21.132,17.108-49.968,5.403-85.708
				c-7.949-24.275-25.739-36.584-52.873-36.584c-27.083,0-55.427,12.311-63.891,16.296L726.525,483.273z M409.839,266.03
				c14.253-5.951,57.467-26.031,70.713-55.591c4.924-10.987,5.135-22.303,0.629-33.634c-6.193-15.572-17.561-23.143-34.754-23.143
				c-20.803,0-43.468,11.492-50.602,15.418L409.839,266.03z M690.94,252.087c14.254-5.951,57.468-26.031,70.714-55.591
				c4.924-10.987,5.135-22.303,0.629-33.634c-6.192-15.572-17.561-23.143-34.755-23.143c-20.803,0-43.468,11.492-50.602,15.418
				L690.94,252.087z"/>
			<path fill="#111111" d="M738.045,78.406c43.837,0.001,84.345,12.767,96.542,55.729c25.38,89.393-44.046,127.263-44.046,127.263
				s2.298-0.212,6.286-0.212c23.879,0,108.309,7.61,122.427,113.949c21.851,164.579-131.397,187.228-217.425,187.228
				c-32.676,0-55.659-3.269-55.659-3.269l-9.844-102.105c-23.138,103.268-143.206,119.315-215.62,119.315
				c-32.664,0-55.638-3.267-55.638-3.267l-43.702-453.295c0,0,71.362-27.394,135.577-27.393
				c43.837,0.001,84.345,12.767,96.542,55.729c25.38,89.393-44.046,127.263-44.046,127.263s2.287-0.211,6.258-0.211
				c19.744,0.001,81.077,5.211,109.595,67.422l-22.825-236.753C602.468,105.799,673.83,78.405,738.045,78.406 M687.708,257.682
				c0,0,101.844-37.078,78.292-96.298c-7.771-19.54-22.747-25.664-38.472-25.664c-26.42,0-54.95,17.291-54.95,17.291
				L687.708,257.682 M406.606,271.625c0,0,101.844-37.078,78.292-96.298c-7.771-19.54-22.747-25.664-38.471-25.664
				c-26.42,0-54.951,17.291-54.951,17.291L406.606,271.625 M723.061,487.393c0,0,146.447-0.091,103.714-130.573
				c-9.962-30.42-33.031-39.34-56.675-39.339c-33.551,0.003-68.254,17.971-68.254,17.971L723.061,487.393 M441.959,501.336
				c0,0,146.447-0.091,103.714-130.573c-9.962-30.42-33.031-39.34-56.675-39.339c-33.551,0.002-68.254,17.971-68.254,17.971
				L441.959,501.336 M738.045,70.406C673.094,70.405,602.572,97.19,599.601,98.33l-5.68,2.181l0.584,6.056l19.611,203.42
				c-11.732-13.78-26.373-24.439-43.783-31.837c-14.031-5.962-27.595-8.771-38.425-10.042c5.061-4.818,10.554-10.908,15.665-18.345
				c8.879-12.922,14.803-27.271,17.607-42.652c3.472-19.043,2.127-39.64-4-61.217c-6.299-22.188-19.934-38.654-40.525-48.946
				c-16.726-8.358-38.161-12.597-63.712-12.598c-64.951-0.001-135.474,26.784-138.444,27.924l-5.68,2.181l0.584,6.056
				l43.702,453.295l0.604,6.267l6.233,0.886c0.961,0.137,23.911,3.347,56.764,3.347c34.639,0,85.187-3.732,129.281-21.514
				c23.747-9.575,43.529-22.362,58.796-38.005c9.268-9.497,16.943-20.112,22.98-31.761l6.443,66.837l0.604,6.267l6.233,0.886
				c0.961,0.137,23.921,3.349,56.785,3.349c36.661,0,70.099-3.924,99.382-11.663c40.61-10.732,72.134-28.654,93.695-53.267
				c28.647-32.703,39.508-76.896,32.278-131.351c-3.422-25.771-11.149-47.977-22.968-66c-9.977-15.215-22.918-27.561-38.463-36.696
				c-18.795-11.045-38.007-15.537-52.72-17.244c5.055-4.814,10.538-10.896,15.641-18.322c8.879-12.922,14.803-27.271,17.607-42.652
				c3.473-19.043,2.127-39.64-3.999-61.217c-6.3-22.188-19.935-38.654-40.526-48.946C785.033,74.646,763.596,70.407,738.045,70.406
				L738.045,70.406z M681.287,157.337c8.677-4.535,28.293-13.617,46.241-13.617c15.367,0,25.52,6.745,31.038,20.62
				c4.147,10.43,3.966,20.409-0.557,30.509c-11.442,25.553-46.915,43.934-63.857,51.496L681.287,157.337L681.287,157.337z
				 M400.185,171.28c8.677-4.535,28.293-13.617,46.242-13.617c15.367,0,25.52,6.745,31.038,20.62
				c4.151,10.438,3.965,20.425-0.567,30.532c-11.48,25.601-46.916,43.939-63.845,51.482L400.185,171.28L400.185,171.28z
				 M710.583,340.169c10.479-4.697,35.585-14.687,59.518-14.688c25.567,0,41.617,11.065,49.072,33.829
				c11.288,34.467,9.653,62.104-4.86,82.142c-21.798,30.096-67.044,36.322-84.337,37.608L710.583,340.169L710.583,340.169z
				 M429.481,354.112c10.48-4.697,35.584-14.687,59.518-14.688c25.567,0,41.617,11.065,49.072,33.829
				c11.288,34.467,9.653,62.104-4.86,82.142c-21.798,30.096-67.044,36.322-84.337,37.608L429.481,354.112L429.481,354.112z"/>
			<path fill="#111111" d="M1009.166,421.722c-27.397-0.001-36.4-13.718-36.77-14.301l-0.711-1.123l28.713-373.137l1.948-1.03
				c19.418-10.274,37.963-15.484,55.118-15.484c22.81,0,43.633,9.361,60.218,27.073c12.427,13.271,18.07,26.431,18.305,26.984
				l0.488,1.156l-71.109,336.319l-1.96,0.803c-20.654,8.453-38.901,12.739-54.235,12.739
				C1009.168,421.722,1009.167,421.722,1009.166,421.722z"/>
			<path fill="#111111" d="M1057.464,20.646c53.012,0,74.838,51.615,74.838,51.615L1061.89,405.28
				c-22.802,9.332-39.966,12.441-52.724,12.441c-25.513,0-33.392-12.441-33.392-12.441l28.442-369.614
				C1024.657,24.851,1042.329,20.646,1057.464,20.646 M1057.464,12.646c-17.814,0-36.988,5.366-56.988,15.948l-3.897,2.063
				l-0.338,4.395l-28.442,369.615l-0.204,2.648l1.422,2.245c1.048,1.654,11.074,16.161,40.15,16.161
				c15.858,0,34.617-4.387,55.754-13.037l3.92-1.605l0.877-4.144l70.412-333.019l0.52-2.458l-0.979-2.313
				c-0.245-0.58-6.16-14.374-19.068-28.159C1103.242,22.446,1081.409,12.646,1057.464,12.646L1057.464,12.646z"/>
			<path fill="#111111" d="M999.493,589.55c-35.018,0-58.545-21.403-58.545-53.26c0-16.582,6.135-33.894,16.831-47.497
				c11.485-14.607,26.3-22.651,41.714-22.651c38.301,0,58.546,19.512,58.546,56.426C1058.039,558.25,1030.681,589.55,999.493,589.55
				z"/>
			<path fill="#111111" d="M999.493,470.142c30.125,0,54.546,12.17,54.546,52.426c0,31.869-24.421,62.982-54.546,62.982
				s-54.545-17.391-54.545-49.26S969.368,470.142,999.493,470.142 M999.493,462.142c-16.668,0-32.599,8.587-44.858,24.179
				c-11.24,14.295-17.687,32.509-17.687,49.97c0,17.541,6.506,32.305,18.815,42.694c11.128,9.393,26.658,14.565,43.729,14.565
				c16.703,0,32.577-7.954,44.698-22.397c11.343-13.516,17.848-31.225,17.848-48.585c0-21.255-6.362-37.236-18.911-47.501
				C1032.643,466.49,1017.962,462.142,999.493,462.142L999.493,462.142z"/>
			<path fill="#111111" d="M198.627,599.748c-26.493,0-53.465-6.935-78-20.055c-33.087-17.692-63.34-63.111-83-124.611
				c-19.194-60.04-26.231-127.886-19.308-186.14c10.02-84.31,47.454-139.042,105.405-154.114
				c19.831-5.158,38.653-7.773,55.943-7.773c56.045,0,99.043,27.717,124.347,80.152c18.923,39.215,21.257,77.785,21.347,79.408
				l0.188,3.396l-96.275,21.241l-0.687-4.166c-0.15-0.908-15.508-90.782-62.929-90.782c-3.286,0-6.715,0.433-10.191,1.287
				c-10.624,2.608-19.432,9.685-26.18,21.031c-26.105,43.895-14.819,134.614-9.449,155.052c1.304,4.963,2.521,11.812,3.932,19.741
				c7.288,40.979,19.485,109.563,72.414,109.563c14.276,0,25.719-4.828,34.008-14.351c23.017-26.438,15.799-80.563,15.724-81.105
				l-0.55-3.956l91.818-12.903l0.619,3.876c13.182,82.524-10.915,131.342-33.451,157.763
				C278.257,582.897,240.709,599.748,198.627,599.748z"/>
			<path fill="#111111" d="M179.667,111.055c133.052,0.002,141.7,155.782,141.7,155.782l-88.833,19.6
				c0,0-15.463-94.133-66.875-94.133c-3.542,0-7.255,0.447-11.146,1.402c-60.353,14.82-46.332,151.344-38.543,180.984
				c7.787,29.642,13.045,132.288,80.215,132.288c67.675,0,53.694-100.009,53.694-100.009l83.976-11.8
				c21.133,132.311-52.783,200.578-135.227,200.578c-25.401,0-51.63-6.489-76.115-19.582
				c-110.233-58.944-162.4-414.651,2.217-457.467C145.068,113.409,163.307,111.055,179.667,111.055 M179.667,103.055
				c-17.628,0-36.79,2.658-56.95,7.902C63.061,126.473,24.574,182.412,14.346,268.47c-6.988,58.803,0.108,127.264,19.47,187.83
				c9.6,30.028,21.537,56.156,35.481,77.658c15.035,23.185,31.67,39.759,49.443,49.263c25.114,13.429,52.738,20.527,79.887,20.527
				c21.01,0,41.036-4.12,59.522-12.244c19.131-8.407,35.7-20.724,49.247-36.606c15.784-18.505,26.841-41.139,32.863-67.272
				c6.452-27.998,6.955-59.529,1.494-93.717l-1.238-7.753l-7.775,1.093l-83.976,11.8l-7.917,1.112l1.107,7.917
				c0.072,0.521,7.023,52.899-14.79,77.937c-7.601,8.724-17.735,12.965-30.981,12.965c-21.333,0-37.477-11.974-49.354-36.605
				c-10.668-22.125-15.554-49.598-19.122-69.658c-1.425-8.016-2.657-14.938-4.001-20.057
				c-6.867-26.137-14.495-112.455,9.019-151.992c6.267-10.537,14.018-16.814,23.695-19.19c3.166-0.777,6.273-1.172,9.238-1.172
				c22.161,0,36.854,22.851,45.277,42.02c9.822,22.353,13.667,45.186,13.705,45.414l1.376,8.325l8.241-1.813l88.833-19.6
				l6.641-1.466l-0.377-6.79c-0.092-1.655-2.472-40.999-21.738-80.924c-11.475-23.779-26.577-42.781-44.885-56.479
				C239.728,111.781,211.781,103.056,179.667,103.055L179.667,103.055z"/>
		</g>
		<g>
			<g>
				<g>
					<path fill="#111111" d="M719.024,127.216c15.722,0,30.702,6.128,38.472,25.664c23.552,59.22-78.292,96.298-78.292,96.298
						l-15.13-104.671C664.074,144.507,692.602,127.216,719.024,127.216 M719.024,119.216c-28.331,0-57.854,17.696-59.097,18.449
						l-4.528,2.745l0.757,5.241l15.13,104.671l1.408,9.739l9.246-3.366c2.613-0.952,64.207-23.761,82.154-63.78
						c6.307-14.063,6.587-28.527,0.835-42.991C756.94,129.835,741.067,119.216,719.024,119.216L719.024,119.216z"/>
				</g>
				<g>
					<path fill="#111111" d="M437.923,141.159c15.722,0,30.702,6.128,38.471,25.664c23.552,59.22-78.292,96.298-78.292,96.298
						l-15.13-104.671C382.972,158.45,411.5,141.159,437.923,141.159 M437.923,133.159c-28.332,0-57.854,17.696-59.097,18.449
						l-4.529,2.745l0.757,5.241l15.13,104.671l1.408,9.739l9.247-3.366c2.613-0.952,64.207-23.761,82.154-63.78
						c6.306-14.063,6.587-28.527,0.835-42.991C475.839,143.778,459.965,133.159,437.923,133.159L437.923,133.159z"/>
				</g>
				<g>
					<path fill="#111111" d="M761.596,308.977c23.641,0,46.714,8.924,56.675,39.339c42.733,130.482-103.714,130.573-103.714,130.573
						l-21.215-151.941C693.342,326.947,728.042,308.977,761.596,308.977 M761.596,300.977c-35.1,0-70.445,18.097-71.933,18.867
						l-5.027,2.603l0.783,5.607l21.215,151.941l0.963,6.897l6.965-0.004c0.733-0.001,18.197-0.072,39.604-5.409
						c28.938-7.216,51.277-20.752,64.601-39.146c17.689-24.424,20.081-56.894,7.107-96.508
						C816.265,316.485,794.038,300.977,761.596,300.977L761.596,300.977z"/>
				</g>
				<g>
					<path fill="#111111" d="M480.495,322.92c23.64,0,46.714,8.924,56.675,39.339c42.733,130.482-103.714,130.573-103.714,130.573
						l-21.215-151.941C412.241,340.891,446.94,322.92,480.495,322.92 M480.495,314.92c-35.1,0-70.445,18.097-71.933,18.867
						l-5.027,2.603l0.783,5.607l21.215,151.941l0.963,6.897l6.965-0.004c0.733-0.001,18.197-0.072,39.604-5.409
						c28.939-7.216,51.277-20.752,64.601-39.146c17.69-24.424,20.081-56.894,7.107-96.508
						C535.164,330.429,512.937,314.92,480.495,314.92L480.495,314.92z"/>
				</g>
				<g>
					<path fill="#43AAE0" d="M412.202,571.8c-32.572,0-55.25-3.172-56.2-3.307l-3.116-0.443l-44.296-459.456l2.84-1.09
						c0.721-0.276,72.797-27.658,137.011-27.658c24.924,0,45.759,4.097,61.924,12.176c19.544,9.768,32.486,25.399,38.465,46.46
						c13.535,47.673,0.371,80.972-13.057,100.512c-7.441,10.83-15.685,18.676-22.063,23.812
						c21.779,1.158,68.403,8.988,97.254,52.501L589.691,94.65l2.84-1.09c0.721-0.276,72.797-27.658,137.011-27.658
						c24.925,0,45.759,4.097,61.924,12.176c19.545,9.768,32.487,25.399,38.466,46.46c13.535,47.673,0.37,80.972-13.057,100.512
						c-7.434,10.818-15.666,18.658-22.042,23.795c14.788,0.732,37.911,4.274,60.392,17.485
						c33.282,19.56,53.299,53.128,59.491,99.774c7.072,53.262-3.467,96.392-31.322,128.189
						c-46.021,52.535-128.758,63.564-190.061,63.564c-0.004,0-0.003,0-0.007,0c-32.584,0-55.272-3.173-56.223-3.309l-3.116-0.443
						l-8.191-84.971C591.861,557.914,479.248,571.8,412.202,571.8z M436.919,488.713c13.976-0.71,66.536-5.63,91.044-39.501
						c15.291-21.132,17.109-49.968,5.404-85.708c-7.95-24.275-25.739-36.584-52.874-36.584c-27.083,0-55.427,12.311-63.891,16.296
						L436.919,488.713z M718.021,474.77c13.977-0.71,66.535-5.63,91.045-39.501c15.29-21.132,17.108-49.968,5.403-85.708
						c-7.949-24.275-25.739-36.584-52.873-36.584c-27.083,0-55.427,12.311-63.891,16.296L718.021,474.77z M401.335,257.526
						c14.253-5.951,57.467-26.031,70.713-55.591c4.924-10.987,5.135-22.303,0.629-33.634c-6.193-15.572-17.561-23.143-34.754-23.143
						c-20.803,0-43.468,11.492-50.602,15.418L401.335,257.526z M682.436,243.583c14.254-5.951,57.468-26.031,70.714-55.591
						c4.924-10.987,5.135-22.303,0.629-33.634c-6.192-15.572-17.561-23.143-34.755-23.143c-20.803,0-43.468,11.492-50.602,15.418
						L682.436,243.583z"/>
					<path fill="#111111" d="M729.542,69.902c43.837,0.001,84.345,12.767,96.542,55.729c25.38,89.393-44.046,127.263-44.046,127.263
						s2.298-0.212,6.286-0.212c23.879,0,108.309,7.61,122.427,113.949c21.851,164.579-131.397,187.228-217.425,187.228
						c-32.676,0-55.659-3.269-55.659-3.269l-9.844-102.105C604.685,551.752,484.617,567.8,412.203,567.8
						c-32.664,0-55.638-3.267-55.638-3.267l-43.702-453.295c0,0,71.362-27.394,135.577-27.393
						c43.837,0.001,84.345,12.767,96.542,55.729c25.38,89.393-44.046,127.263-44.046,127.263s2.287-0.211,6.258-0.211
						c19.744,0.001,81.077,5.211,109.595,67.422L593.964,97.295C593.964,97.295,665.326,69.901,729.542,69.902 M679.204,249.178
						c0,0,101.844-37.078,78.292-96.298c-7.771-19.54-22.747-25.664-38.472-25.664c-26.42,0-54.95,17.291-54.95,17.291
						L679.204,249.178 M398.102,263.121c0,0,101.844-37.078,78.292-96.298c-7.771-19.54-22.747-25.664-38.471-25.664
						c-26.42,0-54.951,17.291-54.951,17.291L398.102,263.121 M714.557,478.889c0,0,146.447-0.091,103.714-130.573
						c-9.962-30.42-33.031-39.34-56.675-39.339c-33.551,0.003-68.254,17.971-68.254,17.971L714.557,478.889 M433.456,492.832
						c0,0,146.447-0.091,103.714-130.573c-9.962-30.42-33.031-39.34-56.675-39.339c-33.551,0.002-68.254,17.971-68.254,17.971
						L433.456,492.832 M729.542,61.902c-64.951-0.001-135.474,26.784-138.444,27.924l-5.68,2.181l0.584,6.056l19.611,203.42
						c-11.732-13.78-26.373-24.439-43.783-31.837c-14.031-5.962-27.595-8.771-38.425-10.042
						c5.061-4.818,10.554-10.908,15.665-18.345c8.879-12.922,14.803-27.271,17.607-42.652c3.472-19.043,2.127-39.64-4-61.217
						c-6.299-22.188-19.934-38.654-40.525-48.946c-16.726-8.358-38.161-12.597-63.712-12.598
						c-64.951-0.001-135.474,26.784-138.444,27.924l-5.68,2.181l0.584,6.056l43.702,453.295l0.604,6.267l6.233,0.886
						c0.961,0.137,23.911,3.347,56.764,3.347c34.639,0,85.187-3.732,129.281-21.514c23.747-9.575,43.529-22.362,58.796-38.005
						c9.268-9.497,16.943-20.112,22.98-31.761l6.443,66.837l0.604,6.267l6.233,0.886c0.961,0.137,23.921,3.349,56.785,3.349
						c36.661,0,70.099-3.924,99.382-11.663c40.61-10.732,72.134-28.654,93.695-53.267c28.647-32.703,39.508-76.896,32.278-131.351
						c-3.422-25.771-11.149-47.977-22.968-66c-9.977-15.215-22.918-27.561-38.463-36.696c-18.795-11.045-38.007-15.537-52.72-17.244
						c5.055-4.814,10.538-10.896,15.641-18.322c8.879-12.922,14.803-27.271,17.607-42.652c3.473-19.043,2.127-39.64-3.999-61.217
						c-6.3-22.188-19.935-38.654-40.526-48.946C776.529,66.142,755.092,61.903,729.542,61.902L729.542,61.902z M672.783,148.833
						c8.677-4.535,28.293-13.617,46.241-13.617c15.367,0,25.52,6.745,31.038,20.62c4.147,10.43,3.966,20.409-0.557,30.509
						c-11.442,25.553-46.915,43.934-63.857,51.496L672.783,148.833L672.783,148.833z M391.681,162.776
						c8.677-4.535,28.293-13.617,46.242-13.617c15.367,0,25.52,6.745,31.038,20.62c4.151,10.438,3.965,20.425-0.567,30.532
						c-11.48,25.601-46.916,43.939-63.845,51.482L391.681,162.776L391.681,162.776z M702.079,331.665
						c10.479-4.697,35.585-14.687,59.518-14.688c25.567,0,41.617,11.065,49.072,33.829c11.288,34.467,9.653,62.104-4.86,82.142
						c-21.798,30.096-67.044,36.322-84.337,37.608L702.079,331.665L702.079,331.665z M420.977,345.608
						c10.48-4.697,35.584-14.687,59.518-14.688c25.567,0,41.617,11.065,49.072,33.829c11.288,34.467,9.653,62.104-4.86,82.142
						c-21.798,30.096-67.044,36.322-84.337,37.608L420.977,345.608L420.977,345.608z"/>
				</g>
				<g>
					<path fill="#E52329" d="M1000.662,413.218c-27.397-0.001-36.4-13.718-36.77-14.301l-0.711-1.123l28.713-373.137l1.948-1.03
						c19.418-10.274,37.963-15.484,55.118-15.484c22.81,0,43.633,9.361,60.218,27.073c12.427,13.271,18.07,26.431,18.305,26.984
						l0.488,1.156l-71.109,336.319l-1.96,0.803c-20.654,8.453-38.901,12.739-54.235,12.739
						C1000.665,413.218,1000.664,413.218,1000.662,413.218z"/>
					<path fill="#111111" d="M1048.96,12.143c53.012,0,74.838,51.615,74.838,51.615l-70.412,333.019
						c-22.802,9.332-39.966,12.441-52.724,12.441c-25.513,0-33.392-12.441-33.392-12.441l28.442-369.614
						C1016.153,16.347,1033.825,12.143,1048.96,12.143 M1048.96,4.143c-17.814,0-36.988,5.366-56.988,15.948l-3.897,2.063
						l-0.338,4.395l-28.442,369.615l-0.204,2.648l1.422,2.245c1.048,1.654,11.074,16.161,40.15,16.161
						c15.858,0,34.617-4.387,55.754-13.037l3.92-1.605l0.877-4.144l70.412-333.019l0.52-2.458l-0.979-2.313
						c-0.245-0.58-6.16-14.374-19.068-28.159C1094.738,13.942,1072.905,4.143,1048.96,4.143L1048.96,4.143z"/>
				</g>
				<g>
					<path fill="#E52329" d="M990.989,581.046c-35.018,0-58.545-21.403-58.545-53.26c0-16.582,6.135-33.894,16.831-47.497
						c11.485-14.607,26.3-22.651,41.714-22.651c38.301,0,58.546,19.512,58.546,56.426
						C1049.535,549.746,1022.177,581.046,990.989,581.046z"/>
					<path fill="#111111" d="M990.989,461.638c30.125,0,54.546,12.17,54.546,52.426c0,31.869-24.421,62.982-54.546,62.982
						s-54.545-17.391-54.545-49.26S960.864,461.638,990.989,461.638 M990.989,453.638c-16.668,0-32.599,8.587-44.858,24.179
						c-11.24,14.295-17.687,32.509-17.687,49.97c0,17.541,6.506,32.305,18.815,42.694c11.128,9.393,26.658,14.565,43.729,14.565
						c16.703,0,32.577-7.954,44.698-22.397c11.343-13.516,17.848-31.225,17.848-48.585c0-21.255-6.362-37.236-18.911-47.501
						C1024.139,457.986,1009.458,453.638,990.989,453.638L990.989,453.638z"/>
				</g>
				<g>
					<path fill="#E52329" d="M190.124,591.244c-26.493,0-53.465-6.935-78-20.055c-33.087-17.692-63.34-63.111-83-124.611
						C9.929,386.538,2.891,318.692,9.814,260.438c10.02-84.31,47.454-139.042,105.405-154.114
						c19.831-5.158,38.653-7.773,55.943-7.773c56.045,0,99.043,27.717,124.347,80.152c18.923,39.215,21.257,77.785,21.347,79.408
						l0.188,3.396l-96.275,21.241l-0.687-4.166c-0.15-0.908-15.508-90.782-62.929-90.782c-3.286,0-6.715,0.433-10.191,1.287
						c-10.624,2.608-19.432,9.685-26.18,21.031c-26.105,43.895-14.819,134.614-9.449,155.052c1.304,4.963,2.521,11.812,3.932,19.741
						c7.288,40.979,19.485,109.563,72.414,109.563c14.276,0,25.719-4.828,34.008-14.351c23.017-26.438,15.799-80.563,15.724-81.105
						l-0.55-3.956l91.818-12.903l0.619,3.876c13.182,82.524-10.915,131.342-33.451,157.763
						C269.753,574.394,232.205,591.244,190.124,591.244z"/>
					<path fill="#111111" d="M171.163,102.551c133.052,0.002,141.7,155.782,141.7,155.782l-88.833,19.6
						c0,0-15.463-94.133-66.875-94.133c-3.542,0-7.255,0.447-11.146,1.402c-60.353,14.82-46.332,151.344-38.543,180.984
						c7.787,29.642,13.045,132.288,80.215,132.288c67.675,0,53.694-100.009,53.694-100.009l83.976-11.8
						c21.133,132.311-52.783,200.578-135.227,200.578c-25.401,0-51.63-6.489-76.115-19.582
						c-110.233-58.944-162.4-414.651,2.217-457.467C136.564,104.905,154.803,102.551,171.163,102.551 M171.163,94.551
						c-17.628,0-36.79,2.658-56.95,7.902C54.557,117.969,16.07,173.908,5.842,259.966c-6.988,58.803,0.108,127.264,19.47,187.83
						c9.6,30.028,21.537,56.156,35.481,77.658c15.035,23.185,31.67,39.759,49.443,49.263c25.114,13.429,52.738,20.527,79.887,20.527
						c21.01,0,41.036-4.12,59.522-12.244c19.131-8.407,35.7-20.724,49.247-36.606c15.784-18.505,26.841-41.139,32.863-67.272
						c6.452-27.998,6.955-59.529,1.494-93.717l-1.238-7.753l-7.775,1.093l-83.976,11.8l-7.917,1.112l1.107,7.917
						c0.072,0.521,7.023,52.899-14.79,77.937c-7.601,8.724-17.735,12.965-30.981,12.965c-21.333,0-37.477-11.974-49.354-36.605
						c-10.668-22.125-15.554-49.598-19.122-69.658c-1.425-8.016-2.657-14.938-4.001-20.057
						c-6.867-26.137-14.495-112.455,9.019-151.992c6.267-10.537,14.018-16.814,23.695-19.19c3.166-0.777,6.273-1.172,9.238-1.172
						c22.161,0,36.854,22.851,45.277,42.02c9.822,22.353,13.667,45.186,13.705,45.414l1.376,8.325l8.241-1.813l88.833-19.6
						l6.641-1.466l-0.377-6.79c-0.092-1.655-2.472-40.999-21.738-80.924c-11.475-23.779-26.577-42.781-44.885-56.479
						C231.224,103.277,203.277,94.552,171.163,94.551L171.163,94.551z"/>
				</g>
			</g>
		</g>
	</g>
</g>
</svg>
