<?xml version="1.0" encoding="utf-8"?>
<!-- Generator: Adobe Illustrator 16.0.0, SVG Export Plug-In . SVG Version: 6.00 Build 0)  -->
<!DOCTYPE svg PUBLIC "-//W3C//DTD SVG 1.1//EN" "http://www.w3.org/Graphics/SVG/1.1/DTD/svg11.dtd">
<svg version="1.1" id="Capa_1" xmlns="http://www.w3.org/2000/svg" xmlns:xlink="http://www.w3.org/1999/xlink" x="0px" y="0px"
	 width="15.625px" height="15.626px" viewBox="0 0 15.625 15.626" enable-background="new 0 0 15.625 15.626" xml:space="preserve">
<rect x="-139.825" y="-61.825" fill="#FBEB00" width="55.275" height="55.275"/>
<circle fill="#DD0008" cx="-112.188" cy="-34.188" r="2.656"/>
<circle fill="#DD0008" cx="-127.813" cy="-49.813" r="2.656"/>
<circle fill="#DD0008" cx="-96.562" cy="-49.813" r="2.656"/>
<circle fill="#DD0008" cx="-127.813" cy="-18.563" r="2.656"/>
<circle fill="#DD0008" cx="-96.562" cy="-18.563" r="2.656"/>
<rect x="-6.006" y="-48.006" fill="#FBEB00" width="27.637" height="27.638"/>
<circle fill="#111111" cx="7.813" cy="-34.188" r="0.93"/>
<circle fill="#111111" cx="0" cy="-42.001" r="0.93"/>
<circle fill="#111111" cx="15.625" cy="-42.001" r="0.93"/>
<circle fill="#111111" cx="0" cy="-26.375" r="0.93"/>
<circle fill="#111111" cx="15.625" cy="-26.375" r="0.93"/>
<rect x="-6.006" y="-6.006" fill="#FBEB00" width="27.637" height="27.638"/>
<circle fill="#DD0008" cx="7.813" cy="7.813" r="0.93"/>
<circle fill="#DD0008" cx="0" cy="-0.001" r="0.93"/>
<circle fill="#DD0008" cx="15.625" cy="-0.001" r="0.93"/>
<circle fill="#DD0008" cx="0" cy="15.625" r="0.93"/>
<circle fill="#DD0008" cx="15.625" cy="15.625" r="0.93"/>
<rect x="188.787" y="187.744" fill="#FBEB00" width="396" height="495.124"/>
<g>
	<polygon fill="#DD0008" points="245.117,387.647 204.912,408.892 247.335,453.308 210.734,487.688 276.171,507.653 
		222.657,577.474 284.209,568.218 277.28,626.325 334.676,596.329 342.717,651.835 387.912,609.638 436.989,651.835 
		438.447,593.091 519.895,619.62 503.535,540.927 559.821,534.88 521.904,492.495 570.912,437.729 512.408,413.38 547.621,354.606 
		511.021,351.661 553.167,269.146 485.79,290.271 492.167,234.764 455.566,256.946 432.276,208.146 404.549,250.292 
		337.172,202.653 321.644,260.325 255.042,218.825 266.189,282.507 227.371,282.507 273.953,347.298 217.39,347.298 	"/>
	<polygon fill="#111111" points="250.69,388.965 212.284,409.261 252.811,451.688 217.846,484.53 280.355,503.603 229.235,570.302 
		288.034,561.46 281.414,616.968 336.244,588.312 343.926,641.335 387.099,601.026 433.979,641.335 435.374,585.218 513.177,610.56 
		497.549,535.388 551.316,529.612 515.097,489.122 561.912,436.806 506.024,413.547 539.662,357.403 504.7,354.589 544.96,275.765 
		480.597,295.944 486.689,242.921 451.726,264.11 429.478,217.493 402.99,257.753 338.627,212.246 323.794,267.339 260.172,227.694 
		270.82,288.528 233.738,288.528 278.237,350.421 224.203,350.421 	"/>
	<polygon fill="#FFFFFF" stroke="#111111" stroke-width="5" stroke-miterlimit="10" points="256.241,390.505 219.398,409.973 
		258.274,450.675 224.734,482.181 284.7,500.476 235.661,564.46 292.065,555.978 285.717,609.228 338.313,581.737 345.682,632.603 
		387.099,593.935 432.071,632.603 433.408,578.771 508.045,603.079 493.054,530.968 544.634,525.429 509.887,486.585 
		554.797,436.398 501.185,414.086 533.454,360.228 499.914,357.527 538.535,281.911 476.792,301.271 482.637,250.403 
		449.097,270.731 427.753,226.011 402.343,264.634 340.601,220.978 326.371,273.827 265.336,235.798 275.552,294.155 
		239.979,294.155 282.668,353.528 230.834,353.528 	"/>
</g>
<rect x="188.787" y="-326.256" fill="#FBEB00" width="396" height="495.124"/>
<g>
	<polygon fill="#FFFFFF" points="245.117,-126.353 204.912,-105.108 247.335,-60.692 210.734,-26.312 276.171,-6.347 
		222.657,63.474 284.209,54.218 277.28,112.325 334.676,82.329 342.717,137.835 387.912,95.638 436.989,137.835 438.447,79.091 
		519.895,105.62 503.535,26.927 559.821,20.88 521.904,-21.505 570.912,-76.271 512.408,-100.62 547.621,-159.394 511.021,-162.339 
		553.167,-244.854 485.79,-223.729 492.167,-279.236 455.566,-257.054 432.276,-305.854 404.549,-263.708 337.172,-311.347 
		321.644,-253.675 255.042,-295.175 266.189,-231.493 227.371,-231.493 273.953,-166.702 217.39,-166.702 	"/>
	<polygon fill="#111111" points="250.69,-125.035 212.284,-104.739 252.811,-62.313 217.846,-29.47 280.355,-10.397 229.235,56.302 
		288.034,47.46 281.414,102.968 336.244,74.312 343.926,127.335 387.099,87.026 433.979,127.335 435.374,71.218 513.177,96.56 
		497.549,21.388 551.316,15.612 515.097,-24.878 561.912,-77.194 506.024,-100.453 539.662,-156.597 504.7,-159.411 
		544.96,-238.235 480.597,-218.056 486.689,-271.079 451.726,-249.89 429.478,-296.507 402.99,-256.247 338.627,-301.754 
		323.794,-246.661 260.172,-286.306 270.82,-225.472 233.738,-225.472 278.237,-163.579 224.203,-163.579 	"/>
	<polygon fill="#FFFFFF" stroke="#111111" stroke-width="5" stroke-miterlimit="10" points="256.241,-123.495 219.398,-104.027 
		258.274,-63.325 224.734,-31.819 284.7,-13.524 235.661,50.46 292.065,41.978 285.717,95.228 338.313,67.737 345.682,118.603 
		387.099,79.935 432.071,118.603 433.408,64.771 508.045,89.079 493.054,16.968 544.634,11.429 509.887,-27.415 554.797,-77.602 
		501.185,-99.914 533.454,-153.772 499.914,-156.473 538.535,-232.089 476.792,-212.729 482.637,-263.597 449.097,-243.269 
		427.753,-287.989 402.343,-249.366 340.601,-293.022 326.371,-240.173 265.336,-278.202 275.552,-219.845 239.979,-219.845 
		282.668,-160.472 230.834,-160.472 	"/>
</g>
</svg>
